<?xml version="1.0" standalone="no"?>
<!DOCTYPE svg PUBLIC "-//W3C//DTD SVG 20010904//EN"
 "http://www.w3.org/TR/2001/REC-SVG-20010904/DTD/svg10.dtd">
<svg version="1.0" xmlns="http://www.w3.org/2000/svg"
 width="512.000000pt" height="512.000000pt" viewBox="0 0 512.000000 512.000000"
 preserveAspectRatio="xMidYMid meet">
<metadata>
Created by potrace 1.14, written by Peter Selinger 2001-2017
</metadata>
<g transform="translate(0.000000,512.000000) scale(0.100000,-0.100000)"
fill="#000000" stroke="none">
<path d="M2538 4555 c-1 -1 -41 -5 -88 -8 -292 -20 -598 -137 -806 -309 -150
-123 -264 -296 -310 -468 -21 -82 -26 -238 -9 -327 7 -37 12 -69 11 -70 0 -1
-30 5 -65 12 -76 16 -292 13 -366 -4 -328 -77 -542 -235 -674 -498 -79 -158
-85 -343 -15 -498 70 -158 232 -306 424 -387 142 -61 222 -75 448 -78 31 0 32
-1 32 -43 0 -59 35 -122 88 -161 42 -30 49 -31 164 -36 l120 -5 23 -61 c12
-33 32 -79 44 -103 l22 -43 -73 -74 c-82 -83 -107 -129 -108 -192 0 -62 28
-109 129 -210 121 -122 146 -139 207 -147 78 -11 117 7 211 96 l81 79 66 -30
c37 -16 84 -35 105 -41 l39 -12 4 -121 c4 -129 10 -148 61 -199 50 -50 81 -57
260 -57 152 0 167 2 208 23 26 14 57 42 74 68 29 42 30 50 33 165 l4 121 39
12 c21 6 69 25 106 42 l67 30 80 -80 c66 -65 90 -82 128 -91 98 -25 138 -6
275 128 111 110 143 159 143 222 0 64 -25 109 -106 191 l-76 76 22 44 c12 23
33 70 45 103 l23 61 118 5 c107 5 123 8 160 32 54 35 84 85 91 150 3 29 6 54
7 55 1 1 63 5 137 7 150 6 165 8 264 37 345 102 573 390 552 698 -9 123 -14
147 -55 251 -69 177 -205 320 -387 406 -50 24 -120 50 -155 59 -113 28 -303
28 -393 -1 -16 -5 -17 0 -10 58 10 85 7 175 -7 245 -73 358 -451 677 -964 813
-61 16 -129 32 -151 35 -22 3 -46 8 -54 11 -7 2 -59 7 -115 10 -55 3 -106 7
-113 9 -6 2 -13 2 -15 0z m309 -194 c442 -96 806 -339 913 -612 58 -146 58
-290 -1 -437 -42 -105 -37 -138 21 -162 28 -12 37 -10 109 24 350 164 762 -6
881 -364 26 -79 35 -216 19 -285 -41 -177 -198 -334 -399 -400 -30 -10 -56
-18 -57 -17 -2 0 -17 -4 -35 -9 -18 -6 -93 -12 -165 -14 l-133 -4 0 40 c0 76
-48 148 -122 182 -26 13 -64 17 -141 17 l-105 0 -22 63 c-13 34 -33 82 -46
107 l-22 46 74 74 c88 89 110 135 100 212 -9 62 -25 87 -131 193 -113 113
-144 135 -203 142 -76 9 -117 -10 -205 -96 -74 -71 -79 -75 -105 -64 -15 7
-64 27 -109 45 l-81 33 -4 117 c-3 111 -4 118 -33 159 -16 23 -50 53 -74 66
-41 21 -56 23 -211 23 -155 0 -170 -2 -211 -23 -24 -13 -57 -43 -74 -66 -29
-41 -30 -48 -33 -159 l-4 -117 -81 -33 c-45 -18 -94 -39 -110 -45 -26 -11 -30
-8 -100 60 -39 40 -89 79 -111 88 -47 20 -109 17 -157 -6 -46 -23 -235 -212
-258 -258 -45 -91 -19 -171 87 -275 l71 -69 -23 -46 c-13 -25 -34 -74 -46
-108 l-23 -63 -106 0 c-90 0 -113 -4 -151 -23 -69 -35 -107 -99 -109 -184 l-1
-32 -122 3 c-68 2 -145 9 -173 16 -249 64 -445 239 -492 440 -9 35 -3 153 8
188 20 62 69 154 114 212 100 130 232 213 421 266 86 24 117 28 234 28 143 0
191 -11 317 -70 58 -28 94 -25 118 9 22 32 18 67 -14 138 -65 140 -75 320 -26
464 68 204 234 370 487 490 89 42 235 90 308 101 19 3 51 9 70 14 19 4 112 7
205 6 131 -2 193 -8 272 -25z m-139 -1094 c6 -7 12 -76 14 -155 4 -166 -1
-158 111 -192 40 -12 116 -44 169 -70 53 -27 105 -47 115 -45 10 2 21 4 25 4
3 1 50 44 103 96 53 52 103 95 112 95 22 0 203 -182 203 -203 0 -10 -38 -55
-84 -100 -94 -94 -118 -126 -113 -153 1 -11 21 -56 44 -99 33 -65 61 -132 68
-165 26 -114 35 -120 205 -120 92 0 140 -4 148 -12 8 -8 12 -56 12 -148 0 -92
-4 -140 -12 -148 -8 -8 -56 -12 -149 -12 -115 0 -140 -3 -158 -17 -13 -11 -35
-59 -55 -118 -19 -55 -51 -129 -71 -165 -53 -93 -48 -108 69 -225 53 -52 96
-102 96 -111 0 -22 -181 -204 -203 -204 -9 0 -62 45 -117 100 -78 76 -108 100
-128 100 -15 0 -65 -19 -112 -43 -47 -24 -122 -54 -167 -67 -110 -34 -113 -39
-113 -212 0 -91 -4 -138 -12 -146 -17 -17 -282 -17 -296 1 -6 7 -12 77 -14
159 -4 171 1 163 -116 198 -40 12 -111 42 -158 66 -47 24 -98 44 -114 44 -21
0 -50 -22 -130 -100 -56 -55 -110 -100 -118 -100 -21 0 -202 182 -202 203 0 9
45 62 100 117 71 72 100 109 100 126 0 13 -20 63 -44 111 -42 83 -86 201 -86
229 0 7 -12 22 -26 33 -24 19 -40 21 -163 21 -93 0 -141 4 -149 12 -17 17 -17
279 0 296 8 8 56 12 148 12 103 0 141 4 156 15 14 9 31 46 49 102 24 79 41
117 100 231 10 19 14 43 11 57 -3 13 -49 67 -101 120 -52 52 -95 103 -95 112
0 21 182 203 203 203 9 0 59 -43 112 -95 53 -52 106 -97 119 -101 15 -4 54 10
122 45 54 27 132 59 172 71 110 33 112 37 112 200 0 92 4 140 12 148 17 17
282 17 296 -1z"/>
<path d="M2469 2716 c-2 -2 -22 -6 -44 -9 -205 -29 -423 -199 -514 -400 -56
-122 -66 -169 -66 -302 0 -116 8 -164 38 -247 37 -103 84 -175 172 -264 140
-141 286 -204 485 -209 141 -3 228 16 350 77 122 62 249 189 308 308 61 124
80 211 77 345 -4 125 -7 141 -39 230 -37 101 -84 173 -171 260 -141 141 -284
204 -481 211 -61 2 -112 2 -115 0z m272 -188 c95 -35 153 -72 218 -138 95 -96
149 -218 157 -354 14 -258 -134 -478 -382 -568 -87 -32 -253 -31 -347 1 -229
78 -380 283 -382 516 0 123 8 165 55 261 54 112 142 200 254 254 98 47 153 58
271 55 66 -2 108 -9 156 -27z"/>
</g>
</svg>
